HIERARCHY
ROOT root
{
	OFFSET	0	13.1	24.9
	CHANNELS 6  Xposition Yposition Zposition Xrotation Yrotation Zrotation
	JOINT spine_1
	{
		OFFSET	0	9.99999	0
		CHANNELS 3  Xrotation Yrotation Zrotation
		JOINT spine_2
		{
			OFFSET	0	112	-10
			CHANNELS 3  Xrotation Yrotation Zrotation
			JOINT spine_3
			{
				OFFSET	0	206.5	19.3
				CHANNELS 3  Xrotation Yrotation Zrotation
				JOINT spine_4
				{
					OFFSET	0	110.4	14.6
					CHANNELS 3  Xrotation Yrotation Zrotation
					JOINT neck_1
					{
						OFFSET	0	71.8	-50.3
						CHANNELS 3  Xrotation Yrotation Zrotation
						JOINT neck_2
						{
							OFFSET	0	86.2	-25.8
							CHANNELS 3  Xrotation Yrotation Zrotation
							JOINT head_ee
							{
								OFFSET	0	179.8	-8.7
								CHANNELS 3  Xrotation Yrotation Zrotation
								End Site
								{
									OFFSET	1	0	0
								}
							}
						}
					}
					JOINT left_clavicle
					{
						OFFSET	-43.2	22.4	-70.8
						CHANNELS 3  Xrotation Yrotation Zrotation
						JOINT left_shoulder
						{
							OFFSET	-93.9	-5.79999	48.7
							CHANNELS 3  Xrotation Yrotation Zrotation
							JOINT left_elbow
							{
								OFFSET	-291.4	-30.8	15.2
								CHANNELS 3  Xrotation Yrotation Zrotation
								JOINT left_lowarm_twist
								{
									OFFSET	-110.7	-3.89999	13.6
									CHANNELS 3  Xrotation Yrotation Zrotation
									JOINT left_hand
									{
										OFFSET	-110.7	-3.89999	13.6
										CHANNELS 3  Xrotation Yrotation Zrotation
										JOINT left_ee
										{
											OFFSET	-80.8	-5.10001	12.1
											CHANNELS 3  Xrotation Yrotation Zrotation
											End Site
											{
												OFFSET	1	0	0
											}
										}
									}
								}
							}
						}
					}
					JOINT right_clavicle
					{
						OFFSET	43.2	22.4	-70.8
						CHANNELS 3  Xrotation Yrotation Zrotation
						JOINT right_shoulder
						{
							OFFSET	93.9	-5.79999	48.7
							CHANNELS 3  Xrotation Yrotation Zrotation
							JOINT right_elbow
							{
								OFFSET	291.4	-30.8	15.2
								CHANNELS 3  Xrotation Yrotation Zrotation
								JOINT right_lowarm_twist
								{
									OFFSET	110.7	-3.89999	13.6
									CHANNELS 3  Xrotation Yrotation Zrotation
									JOINT right_hand
									{
										OFFSET	110.7	-3.89999	13.6
										CHANNELS 3  Xrotation Yrotation Zrotation
										JOINT right_ee
										{
											OFFSET	80.8	-5.10001	12.1
											CHANNELS 3  Xrotation Yrotation Zrotation
											End Site
											{
												OFFSET	1	0	0
											}
										}
									}
								}
							}
						}
					}
				}
			}
		}
	}
	JOINT left_hip
	{
		OFFSET	-82.8	-127.5	0.300001
		CHANNELS 3  Xrotation Yrotation Zrotation
		JOINT left_knee
		{
			OFFSET	-28.2	-396.7	2.2
			CHANNELS 3  Xrotation Yrotation Zrotation
			JOINT left_ankle
			{
				OFFSET	-11.7	-411.3	35.4
				CHANNELS 3  Xrotation Yrotation Zrotation
				JOINT left_toes
				{
					OFFSET	0	-60	-88.6
					CHANNELS 3  Xrotation Yrotation Zrotation
					JOINT left_foot_ee
					{
						OFFSET	-22.5	-16.5	-42.2
						CHANNELS 3  Xrotation Yrotation Zrotation
						End Site
						{
							OFFSET	1	0	0
						}
					}
				}
			}
		}
	}
	JOINT right_hip
	{
		OFFSET	82.8	-127.5	0.300001
		CHANNELS 3  Xrotation Yrotation Zrotation
		JOINT right_knee
		{
			OFFSET	28.2	-396.7	2.2
			CHANNELS 3  Xrotation Yrotation Zrotation
			JOINT right_ankle
			{
				OFFSET	11.7	-411.3	35.4
				CHANNELS 3  Xrotation Yrotation Zrotation
				JOINT right_toes
				{
					OFFSET	0	-60	-88.6
					CHANNELS 3  Xrotation Yrotation Zrotation
					JOINT right_foot_ee
					{
						OFFSET	22.5	-16.5	-42.2
						CHANNELS 3  Xrotation Yrotation Zrotation
						End Site
						{
							OFFSET	1	0	0
						}
					}
				}
			}
		}
	}
}
MOTION
Frames: 15
Frame Time: 0.02
1041.4 574.639 -1682.42 3.71127316027 18.0395982338 3.15260969242 -1.54334 0.0198373 -0.2436 -1.54331 0.035298 -0.241844 -1.54344 0.0914779 -0.226642 -1.54351 0.0545361 -0.238245 -6.32244 1.57925 -2.44429 -6.30063 4.7134 -2.1569 -0.0 0.0 -0.0 -0.278384 23.3312 2.31823 -15.9255 -23.9275 73.8147 0.841039 -22.6177 0.168194 -5.61822 -0.231505 0.679561 1.41838 13.0674 14.4501 -0.0 0.0 -0.0 11.147 9.03662 -22.3639 -6.74368 28.794 -48.2653 1.50385 36.6824 -0.498576 -46.7027 3.69051 -4.49943 -5.7618 -21.0849 26.5213 0.0 0.0 0.0 38.1106 45.2635 -9.98677 5.30025 -0.254261 -0.773123 -3.60156 28.1345 0.563882 21.3575 -0.0 -0.0 -0.0 0.0 -0.0 -4.51901 24.8367 -7.34541 -23.2972 -0.241933 -3.54239 36.682 1.68276 4.59336 12.4002 -0.0 -0.0 0.0 0.0 0.0 
1041.4 574.639 -1682.42 3.72340539584 18.6035106907 3.1140154391 -1.54334 0.0198373 -0.2436 -1.54331 0.035298 -0.241844 -1.54344 0.0914779 -0.226642 -1.54351 0.0545361 -0.238245 -6.32244 1.57925 -2.44429 -6.30063 4.7134 -2.1569 -0.0 0.0 -0.0 -0.278384 23.3312 2.31823 -15.9255 -23.9275 73.8147 0.841039 -22.6177 0.168194 -5.61822 -0.231505 0.679561 1.41838 13.0674 14.4501 -0.0 0.0 -0.0 11.147 9.03662 -22.3639 -6.74368 28.794 -48.2653 1.50385 36.6824 -0.498576 -46.7027 3.69051 -4.49943 -5.7618 -21.0849 26.5213 0.0 0.0 0.0 38.1106 45.2635 -9.98677 5.30025 -0.254261 -0.773123 -3.60156 28.1345 0.563882 21.3575 -0.0 -0.0 -0.0 0.0 -0.0 -4.51901 24.8367 -7.34541 -23.2972 -0.241933 -3.54239 36.682 1.68276 4.59336 12.4002 -0.0 -0.0 0.0 0.0 0.0 
1029.7452978 572.729 -1697.94747297 4.25954078659 19.6233494774 3.31051931475 -1.23869 -0.069319 -0.431008 -1.23858 -0.0417526 -0.434545 -1.23818 0.0598699 -0.432422 -1.23844 -0.00917377 -0.43645 -7.20253 2.46144 -3.26284 -7.16764 6.92248 -2.75381 -0.0 0.0 -0.0 -2.15003 23.7608 -0.176658 -12.7952 -25.789 76.2397 0.980079 -25.8962 0.225339 -7.3137 -0.314365 0.879908 1.42622 12.0582 14.147 -0.0 0.0 -0.0 10.7475 9.24125 -21.4807 -7.87828 27.9848 -49.5579 1.35753 33.9182 -0.413996 -42.5546 3.22685 -4.23803 -4.78145 -17.0775 22.8932 0.0 0.0 0.0 41.7724 48.8759 -14.1164 4.98778 -0.237291 -0.728209 -17.9199 29.94 2.88733 18.2402 -0.0 -0.0 -0.0 0.0 -0.0 -7.00845 26.102 -8.24798 -21.8955 -0.268304 -3.32891 38.3602 -4.75158 4.71312 12.9413 -0.0 -0.0 0.0 0.0 0.0 
1029.69120852 572.729 -1697.90672665 4.26486565698 19.8226461444 3.29474068855 -1.23869 -0.069319 -0.431008 -1.23858 -0.0417526 -0.434545 -1.23818 0.0598699 -0.432422 -1.23844 -0.00917377 -0.43645 -7.20253 2.46144 -3.26284 -7.16764 6.92248 -2.75381 -0.0 0.0 -0.0 -2.15003 23.7608 -0.176658 -12.7952 -25.789 76.2397 0.980079 -25.8962 0.225339 -7.3137 -0.314365 0.879908 1.42622 12.0582 14.147 -0.0 0.0 -0.0 10.7475 9.24125 -21.4807 -7.87828 27.9848 -49.5579 1.35753 33.9182 -0.413996 -42.5546 3.22685 -4.23803 -4.78145 -17.0775 22.8932 0.0 0.0 0.0 41.7724 48.8759 -14.1164 4.98778 -0.237291 -0.728209 -17.9199 29.94 2.88733 18.2402 -0.0 -0.0 -0.0 0.0 -0.0 -7.00845 26.102 -8.24798 -21.8955 -0.268304 -3.32891 38.3602 -4.75158 4.71312 12.9413 -0.0 -0.0 0.0 0.0 0.0 
1029.55418115 572.729 -1697.80216746 4.27871361087 20.3299029566 3.25439989119 -1.23869 -0.069319 -0.431008 -1.23858 -0.0417526 -0.434545 -1.23818 0.0598699 -0.432422 -1.23844 -0.00917377 -0.43645 -7.20253 2.46144 -3.26284 -7.16764 6.92248 -2.75381 -0.0 0.0 -0.0 -2.15003 23.7608 -0.176658 -12.7952 -25.789 76.2397 0.980079 -25.8962 0.225339 -7.3137 -0.314365 0.879908 1.42622 12.0582 14.147 -0.0 0.0 -0.0 10.7475 9.24125 -21.4807 -7.87828 27.9848 -49.5579 1.35753 33.9182 -0.413996 -42.5546 3.22685 -4.23803 -4.78145 -17.0775 22.8932 0.0 0.0 0.0 41.7724 48.8759 -14.1164 4.98778 -0.237291 -0.728209 -17.9199 29.94 2.88733 18.2402 -0.0 -0.0 -0.0 0.0 -0.0 -7.00845 26.102 -8.24798 -21.8955 -0.268304 -3.32891 38.3602 -4.75158 4.71312 12.9413 -0.0 -0.0 0.0 0.0 0.0 
1029.49448834 572.729 -1697.75601291 4.28491017479 20.5519601063 3.23665700704 -1.23869 -0.069319 -0.431008 -1.23858 -0.0417526 -0.434545 -1.23818 0.0598699 -0.432422 -1.23844 -0.00917377 -0.43645 -7.20253 2.46144 -3.26284 -7.16764 6.92248 -2.75381 -0.0 0.0 -0.0 -2.15003 23.7608 -0.176658 -12.7952 -25.789 76.2397 0.980079 -25.8962 0.225339 -7.3137 -0.314365 0.879908 1.42622 12.0582 14.147 -0.0 0.0 -0.0 10.7475 9.24125 -21.4807 -7.87828 27.9848 -49.5579 1.35753 33.9182 -0.413996 -42.5546 3.22685 -4.23803 -4.78145 -17.0775 22.8932 0.0 0.0 0.0 41.7724 48.8759 -14.1164 4.98778 -0.237291 -0.728209 -17.9199 29.94 2.88733 18.2402 -0.0 -0.0 -0.0 0.0 -0.0 -7.00845 26.102 -8.24798 -21.8955 -0.268304 -3.32891 38.3602 -4.75158 4.71312 12.9413 -0.0 -0.0 0.0 0.0 0.0 
1006.18284601 578.831 -1711.23674973 4.52886897647 20.4206701971 3.31361584735 -1.41863 -0.0514335 -0.521618 -1.41848 -0.0181379 -0.523834 -1.41818 0.105108 -0.513501 -1.41855 0.0226925 -0.523656 -7.09269 0.785238 -3.04909 -7.06383 3.65782 -2.88756 -0.0 0.0 -0.0 -1.66281 22.34 0.261734 -11.1059 -26.6366 76.8887 0.951702 -25.2409 0.213092 -7.15671 -0.306443 0.86146 1.46742 10.7348 13.947 -0.0 0.0 -0.0 10.5814 8.98411 -21.1154 -8.91656 27.5941 -49.7535 1.27961 32.3684 -0.371394 -41.5651 3.11913 -4.17079 -4.51013 -18.5914 20.0819 0.0 0.0 0.0 41.478 50.7349 -14.9924 3.54196 -0.16198 -0.519242 -15.0354 29.7438 2.4145 22.0641 -0.0 -0.0 -0.0 0.0 -0.0 -6.74763 25.945 -6.41953 -24.321 -0.219376 -3.69788 38.0652 7.30396 4.79935 13.7289 -0.0 -0.0 0.0 0.0 0.0 
984.406902448 586.293 -1734.16667266 5.64879274282 22.7637230171 2.60591490292 -1.45252 -0.0462873 -0.699719 -1.45225 -0.00166971 -0.701246 -1.452 0.163095 -0.682019 -1.45265 0.0533387 -0.699217 -10.163 2.85321 1.32897 -10.1652 4.47897 2.01051 -0.0 0.0 -0.0 -2.33656 23.4267 -0.490422 -6.62191 -23.699 76.902 1.24264 -31.6138 0.351805 -5.43491 -0.222904 0.657757 0.534138 14.1599 9.17121 -0.0 0.0 -0.0 11.1214 8.6162 -22.3052 -11.4342 26.371 -49.907 1.029 27.009 -0.247134 -37.9083 2.73151 -3.90642 -4.57875 -18.9377 20.2946 0.0 0.0 0.0 36.9009 54.776 -13.3452 5.81317 -0.282649 -0.84665 -11.9498 29.4576 1.90973 25.8943 -0.0 -0.0 -0.0 0.0 -0.0 -6.61985 31.7778 -9.11978 -25.823 -0.181261 -3.92521 37.4588 -3.86113 4.63234 13.242 -0.0 -0.0 0.0 0.0 0.0 
966.624490472 601.564 -1750.63149591 5.94256514452 24.6860583837 2.68965154403 -1.66486 -0.100768 -0.871871 -1.66444 -0.045086 -0.876516 -1.66336 0.165245 -0.86198 -1.6644 0.027043 -0.877258 -11.3929 3.33276 6.86958 -11.2622 1.80851 7.52678 -0.0 0.0 -0.0 -2.1926 24.1825 -0.161253 -6.34105 -24.788 75.3654 1.08619 -28.2824 0.27367 -7.18806 -0.308021 0.865146 1.22232 8.75799 11.6061 -0.0 0.0 -0.0 11.1556 8.01073 -22.3758 -13.9665 25.866 -50.4393 0.843339 22.6733 -0.16908 -38.9676 2.84204 -3.98553 -3.86413 -13.5254 19.0313 0.0 0.0 0.0 36.7749 56.6491 -15.6629 5.57514 -0.269393 -0.812559 -16.0523 28.6507 2.56152 21.136 -0.0 -0.0 -0.0 0.0 -0.0 -6.77696 27.5093 -8.28399 -24.4776 -0.21568 -3.72163 36.7531 4.36275 4.63157 12.2697 -0.0 -0.0 0.0 0.0 0.0 
956.29165073 605.764 -1757.31032037 7.51377557431 28.2971681537 1.49817586304 -1.89044 -0.396781 -1.00241 -1.88994 -0.332194 -1.02562 -1.88327 -0.0739354 -1.07554 -1.8848 -0.242859 -1.05037 -11.5651 4.05194 7.06959 -11.43 3.06342 7.91447 -0.0 0.0 -0.0 -1.50377 23.4844 0.660574 -6.44925 -24.4063 74.291 0.980465 -25.9051 0.225508 -6.9632 -0.296749 0.838691 0.743296 10.685 9.19996 -0.0 0.0 -0.0 11.252 8.9819 -22.5967 -15.2151 25.3378 -50.8602 0.755025 20.5066 -0.136578 -37.3264 2.67142 -3.8621 -3.61223 -12.6561 17.8647 0.0 0.0 0.0 34.0692 57.4479 -15.246 5.62132 -0.271954 -0.819177 -17.1304 25.1877 2.68174 20.3091 -0.0 -0.0 -0.0 0.0 -0.0 -4.70109 27.9174 -9.79537 -27.7424 -0.123894 -4.21419 39.0503 2.77959 4.81959 14.2232 -0.0 -0.0 0.0 0.0 0.0 
954.748637754 605.764 -1755.51947073 7.60047900265 29.4815355614 1.31871982406 -1.89044 -0.396781 -1.00241 -1.88994 -0.332194 -1.02562 -1.88327 -0.0739354 -1.07554 -1.8848 -0.242859 -1.05037 -11.5651 4.05194 7.06959 -11.43 3.06342 7.91447 -0.0 0.0 -0.0 -1.50377 23.4844 0.660574 -6.44925 -24.4063 74.291 0.980465 -25.9051 0.225508 -6.9632 -0.296749 0.838691 0.743296 10.685 9.19996 -0.0 0.0 -0.0 11.252 8.9819 -22.5967 -15.2151 25.3378 -50.8602 0.755025 20.5066 -0.136578 -37.3264 2.67142 -3.8621 -3.61223 -12.6561 17.8647 0.0 0.0 0.0 34.0692 57.4479 -15.246 5.62132 -0.271954 -0.819177 -17.1304 25.1877 2.68174 20.3091 -0.0 -0.0 -0.0 0.0 -0.0 -4.70109 27.9174 -9.79537 -27.7424 -0.123894 -4.21419 39.0503 2.77959 4.81959 14.2232 -0.0 -0.0 0.0 0.0 0.0 
953.037075145 605.764 -1753.44101598 7.70577398535 30.8302313747 1.10913149766 -1.89044 -0.396781 -1.00241 -1.88994 -0.332194 -1.02562 -1.88327 -0.0739354 -1.07554 -1.8848 -0.242859 -1.05037 -11.5651 4.05194 7.06959 -11.43 3.06342 7.91447 -0.0 0.0 -0.0 -1.50377 23.4844 0.660574 -6.44925 -24.4063 74.291 0.980465 -25.9051 0.225508 -6.9632 -0.296749 0.838691 0.743296 10.685 9.19996 -0.0 0.0 -0.0 11.252 8.9819 -22.5967 -15.2151 25.3378 -50.8602 0.755025 20.5066 -0.136578 -37.3264 2.67142 -3.8621 -3.61223 -12.6561 17.8647 0.0 0.0 0.0 34.0692 57.4479 -15.246 5.62132 -0.271954 -0.819177 -17.1304 25.1877 2.68174 20.3091 -0.0 -0.0 -0.0 0.0 -0.0 -4.70109 27.9174 -9.79537 -27.7424 -0.123894 -4.21419 39.0503 2.77959 4.81959 14.2232 -0.0 -0.0 0.0 0.0 0.0 
950.9032369 605.764 -1750.70123511 7.85251177435 32.569264134 0.829912386151 -1.89044 -0.396781 -1.00241 -1.88994 -0.332194 -1.02562 -1.88327 -0.0739354 -1.07554 -1.8848 -0.242859 -1.05037 -11.5651 4.05194 7.06959 -11.43 3.06342 7.91447 -0.0 0.0 -0.0 -1.50377 23.4844 0.660574 -6.44925 -24.4063 74.291 0.980465 -25.9051 0.225508 -6.9632 -0.296749 0.838691 0.743296 10.685 9.19996 -0.0 0.0 -0.0 11.252 8.9819 -22.5967 -15.2151 25.3378 -50.8602 0.755025 20.5066 -0.136578 -37.3264 2.67142 -3.8621 -3.61223 -12.6561 17.8647 0.0 0.0 0.0 34.0692 57.4479 -15.246 5.62132 -0.271954 -0.819177 -17.1304 25.1877 2.68174 20.3091 -0.0 -0.0 -0.0 0.0 -0.0 -4.70109 27.9174 -9.79537 -27.7424 -0.123894 -4.21419 39.0503 2.77959 4.81959 14.2232 -0.0 -0.0 0.0 0.0 0.0 
948.980536015 605.764 -1748.07541773 8.0020139618 34.1984323325 0.558239255589 -1.89044 -0.396781 -1.00241 -1.88994 -0.332194 -1.02562 -1.88327 -0.0739354 -1.07554 -1.8848 -0.242859 -1.05037 -11.5651 4.05194 7.06959 -11.43 3.06342 7.91447 -0.0 0.0 -0.0 -1.50377 23.4844 0.660574 -6.44925 -24.4063 74.291 0.980465 -25.9051 0.225508 -6.9632 -0.296749 0.838691 0.743296 10.685 9.19996 -0.0 0.0 -0.0 11.252 8.9819 -22.5967 -15.2151 25.3378 -50.8602 0.755025 20.5066 -0.136578 -37.3264 2.67142 -3.8621 -3.61223 -12.6561 17.8647 0.0 0.0 0.0 34.0692 57.4479 -15.246 5.62132 -0.271954 -0.819177 -17.1304 25.1877 2.68174 20.3091 -0.0 -0.0 -0.0 0.0 -0.0 -4.70109 27.9174 -9.79537 -27.7424 -0.123894 -4.21419 39.0503 2.77959 4.81959 14.2232 -0.0 -0.0 0.0 0.0 0.0 
947.024201084 605.764 -1745.23082533 8.17432826596 35.9259906831 0.258317936936 -1.89044 -0.396781 -1.00241 -1.88994 -0.332194 -1.02562 -1.88327 -0.0739354 -1.07554 -1.8848 -0.242859 -1.05037 -11.5651 4.05194 7.06959 -11.43 3.06342 7.91447 -0.0 0.0 -0.0 -1.50377 23.4844 0.660574 -6.44925 -24.4063 74.291 0.980465 -25.9051 0.225508 -6.9632 -0.296749 0.838691 0.743296 10.685 9.19996 -0.0 0.0 -0.0 11.252 8.9819 -22.5967 -15.2151 25.3378 -50.8602 0.755025 20.5066 -0.136578 -37.3264 2.67142 -3.8621 -3.61223 -12.6561 17.8647 0.0 0.0 0.0 34.0692 57.4479 -15.246 5.62132 -0.271954 -0.819177 -17.1304 25.1877 2.68174 20.3091 -0.0 -0.0 -0.0 0.0 -0.0 -4.70109 27.9174 -9.79537 -27.7424 -0.123894 -4.21419 39.0503 2.77959 4.81959 14.2232 -0.0 -0.0 0.0 0.0 0.0 
